:SAMPLES-PER-SECOND 30
:FULLY-SPECIFIED
:DEGREES
647
root  -7.35242 39.5277 11.1259 -7.004 -58.8233 9.80315
RightUpLeg  10.7262 2.04801 -1.75827
RightLeg  31.046 10.3707 6.44468
RightFoot  43.6498 -10.3988 20.4635
RightToes  -1.33073e-015 0 -3.6325e-017
Spine  -11.0024 25.1629 32.2083
Spine1  -3.67561 25.407 -29.5363
HEad  24.3951 -58.4869 -13.3757
LeftShoulder1  2.26725 -7.45702 -13.7402
LeftArm  -63.3167 -28.0362 -11.7544
LeftForeArm  144.989 -80.0626 -117.511
LeftHand  -0.246645 0.021 5.37786
RightShoulder  2.12337 9.33196 9.17095
RightArm  108.188 51.6766 160.241
RightForeArm  61.8445 57.8673 12.4979
RightHand  -0.24729 -0.0210522 -5.37781
LeftUpLeg  -11.3649 -6.61121 -11.3548
LeftLeg  45.4591 -73.914 -45.731
LeftFoot  9.91618 1.31357 -7.3166
LeftToes  5.09284e-011 3.02203e-011 3.83118e-011
648
root  -7.35056 39.5442 11.1025 -7.14391 -58.9744 9.93549
RightUpLeg  10.7389 2.22643 -1.7676
RightLeg  30.9971 10.3758 6.43584
RightFoot  43.62 -10.4031 20.4839
RightToes  -1.33073e-015 0 -3.6325e-017
Spine  -10.8398 25.159 32.3868
Spine1  -3.57783 25.4906 -29.8029
HEad  24.3469 -57.8751 -12.9442
LeftShoulder1  2.25942 -7.48793 -13.5972
LeftArm  -63.183 -28.1902 -12.2044
LeftForeArm  145.253 -80.0348 -117.809
LeftHand  -0.246645 0.021 5.37786
RightShoulder  2.17755 9.41697 9.51853
RightArm  108.075 51.7584 159.85
RightForeArm  61.6089 57.8742 12.5189
RightHand  -0.24729 -0.0210522 -5.37781
LeftUpLeg  -11.3064 -6.70268 -11.3912
LeftLeg  44.3896 -73.7025 -44.574
LeftFoot  9.93608 1.22261 -6.82721
LeftToes  5.09284e-011 3.02203e-011 3.83118e-011
649
root  -7.34906 39.5594 11.0645 -7.29417 -59.3417 10.0658
RightUpLeg  10.694 2.49262 -1.77013
RightLeg  31.0199 10.3797 6.44426
RightFoot  43.6004 -10.3948 20.4764
RightToes  -1.33073e-015 0 -3.6325e-017
Spine  -10.8371 25.0584 32.4612
Spine1  -3.2393 25.4521 -29.628
HEad  24.1212 -57.0123 -12.5324
LeftShoulder1  2.34372 -7.67523 -14.0467
LeftArm  -63.1631 -28.3202 -11.9456
LeftForeArm  143.047 -80.1661 -116.024
LeftHand  -0.246645 0.021 5.37786
RightShoulder  2.16601 9.37517 9.47904
RightArm  107.945 51.8138 159.68
RightForeArm  61.3271 57.7561 12.4729
RightHand  -0.24729 -0.0210522 -5.37781
LeftUpLeg  -11.2653 -6.78369 -11.3602
LeftLeg  43.0963 -73.4203 -43.1677
LeftFoot  9.85778 1.13518 -6.38441
LeftToes  5.09284e-011 3.02203e-011 3.83118e-011
650
root  -7.34924 39.5701 11.0166 -7.45326 -59.89 10.2031
RightUpLeg  10.5914 2.68113 -1.84861
RightLeg  31.1253 10.4314 6.50353
RightFoot  43.6215 -10.3387 20.362
RightToes  -1.33073e-015 0 -3.6325e-017
Spine  -10.966 24.8636 32.425
Spine1  -2.80052 25.2855 -29.1583
HEad  23.7531 -55.9719 -12.1674
LeftShoulder1  2.46959 -7.91938 -14.7655
LeftArm  -62.9315 -28.5533 -11.612
LeftForeArm  139.403 -80.4055 -112.651
LeftHand  -0.246645 0.021 5.37786
RightShoulder  2.12298 9.29522 9.22108
RightArm  107.612 51.8549 159.481
RightForeArm  61.1761 57.4265 12.3001
RightHand  -0.24729 -0.0210522 -5.37781
LeftUpLeg  -11.2799 -6.77842 -11.2496
LeftLeg  41.8829 -73.0441 -41.8676
LeftFoot  9.73131 1.06158 -6.02459
LeftToes  5.09284e-011 3.02203e-011 3.83118e-011
651
root  -7.35463 39.5824 10.9692 -7.66934 -60.5584 10.3813
RightUpLeg  10.4962 2.83761 -1.9696
RightLeg  31.2466 10.385 6.50442
RightFoot  43.6795 -10.2369 20.1468
RightToes  -1.33073e-015 0 -3.6325e-017
Spine  -11.2389 24.5424 32.2774
Spine1  -2.25666 24.9815 -28.5504
HEad  23.2992 -54.8509 -11.7778
LeftShoulder1  2.56905 -8.10664 -15.322
LeftArm  -62.3273 -28.9218 -11.8124
LeftForeArm  135.971 -80.6407 -108.987
LeftHand  -0.246645 0.021 5.37786
RightShoulder  2.1102 9.333 9.05476
RightArm  107.19 51.9673 159.081
RightForeArm  61.0874 56.9858 12.0658
RightHand  -0.24729 -0.0210522 -5.37781
LeftUpLeg  -11.304 -6.66262 -11.096
LeftLeg  40.7573 -72.6069 -40.7034
LeftFoot  9.61159 0.982973 -5.63135
LeftToes  5.09284e-011 3.02203e-011 3.83118e-011
652
root  -7.36102 39.6008 10.9185 -7.99515 -61.3361 10.6461
RightUpLeg  10.4242 3.05227 -2.10338
RightLeg  31.3669 10.172 6.39806
RightFoot  43.6931 -10.1281 19.9368
RightToes  -1.33073e-015 0 -3.6325e-017
Spine  -11.5685 24.1054 32.1594
Spine1  -1.63654 24.5818 -28.0683
HEad  22.7904 -53.6789 -11.2214
LeftShoulder1  2.63338 -8.26425 -15.5953
LeftArm  -61.4191 -29.3372 -12.4398
LeftForeArm  132.147 -80.8583 -104.776
LeftHand  -0.246645 0.021 5.37786
RightShoulder  2.15475 9.49732 9.20455
RightArm  106.819 52.2205 158.423
RightForeArm  60.8689 56.5496 11.849
RightHand  -0.24729 -0.0210522 -5.37781
LeftUpLeg  -11.2729 -6.52286 -10.9533
LeftLeg  39.4077 -72.1435 -39.3085
LeftFoot  9.46838 0.887117 -5.14468
LeftToes  5.09284e-011 3.02203e-011 3.83118e-011
653
root  -7.36386 39.6222 10.8541 -8.43434 -62.2574 11.0164
RightUpLeg  10.3242 3.26388 -2.30349
RightLeg  31.5356 9.91537 6.2742
RightFoot  43.6253 -10.0227 19.7654
RightToes  -1.33073e-015 0 -3.6325e-017
Spine  -11.8111 23.622 32.163
Spine1  -1.09969 24.156 -27.8814
HEad  22.2373 -52.526 -10.4493
LeftShoulder1  2.68587 -8.47356 -15.6468
LeftArm  -60.2525 -29.7174 -13.2092
LeftForeArm  126.469 -81.0394 -99.1423
LeftHand  -0.246645 0.021 5.37786
RightShoulder  2.23932 9.6501 9.70831
RightArm  106.41 52.5742 157.454
RightForeArm  60.4662 56.0951 11.641
RightHand  -0.24729 -0.0210522 -5.37781
LeftUpLeg  -11.1915 -6.46253 -10.8306
LeftLeg  37.6133 -71.6049 -37.4015
LeftFoot  9.24293 0.791902 -4.67091
LeftToes  5.09284e-011 3.02203e-011 3.83118e-011
654
root  -7.36745 39.6433 10.7823 -8.92212 -63.3373 11.4369
RightUpLeg  10.1811 3.41897 -2.56878
RightLeg  31.7367 9.66682 6.16116
RightFoot  43.587 -9.91912 19.5852
RightToes  -1.33073e-015 0 -3.6325e-017
Spine  -11.9826 23.1249 32.1456
Spine1  -0.695147 23.7047 -27.7632
HEad  21.6654 -51.5462 -9.66832
LeftShoulder1  2.73732 -8.74432 -15.5639
LeftArm  -58.7863 -30.0221 -14.135
LeftForeArm  119.781 -81.119 -92.9179
LeftHand  -0.246645 0.021 5.37786
RightShoulder  2.32845 9.71676 10.3652
RightArm  105.814 52.9274 156.21
RightForeArm  59.9897 55.5596 11.4027
RightHand  -0.24729 -0.0210522 -5.37781
LeftUpLeg  -11.1149 -6.45923 -10.6773
LeftLeg  35.5756 -70.922 -35.1973
LeftFoot  8.95541 0.717562 -4.3138
LeftToes  5.09284e-011 3.02203e-011 3.83118e-011
655
root  -7.37702 39.6651 10.7155 -9.39665 -64.5488 11.8217
RightUpLeg  10.0461 3.65105 -2.78035
RightLeg  31.8995 9.33166 5.97987
RightFoot  43.68 -9.84659 19.412
RightToes  -1.33073e-015 0 -3.6325e-017
Spine  -12.2315 22.5777 32.0031
Spine1  -0.228721 23.171 -27.3724
HEad  21.1075 -50.7857 -9.19113
LeftShoulder1  2.81045 -9.04586 -15.6126
LeftArm  -57.0867 -30.2567 -15.1295
LeftForeArm  113.436 -81.0997 -86.9478
LeftHand  -0.246645 0.021 5.37786
RightShoulder  2.39798 9.76579 10.8764
RightArm  105.023 53.2549 154.857
RightForeArm  59.4877 54.9589 11.1411
RightHand  -0.24729 -0.0210522 -5.37781
LeftUpLeg  -11.0588 -6.40912 -10.4419
LeftLeg  33.6779 -70.0905 -33.138
LeftFoot  8.67331 0.653968 -4.00577
LeftToes  5.09284e-011 3.02203e-011 3.83118e-011
656
root  -7.38896 39.687 10.6502 -9.91557 -65.8653 12.1947
RightUpLeg  9.95368 4.08954 -2.88814
RightLeg  32.0442 8.92681 5.74544
RightFoot  43.8173 -9.79925 19.2697
RightToes  -1.33073e-015 0 -3.6325e-017
Spine  -12.6027 21.9527 31.8597
Spine1  0.476733 22.5437 -26.7014
HEad  20.5511 -50.0598 -9.07896
LeftShoulder1  2.9437 -9.36046 -16.144
LeftArm  -55.3715 -30.4989 -15.8777
LeftForeArm  106.304 -80.966 -79.989
LeftHand  -0.246645 0.021 5.37786
RightShoulder  2.44574 9.86347 11.1267
RightArm  104.101 53.5981 153.49
RightForeArm  58.911 54.3393 10.8839
RightHand  -0.24729 -0.0210522 -5.37781
LeftUpLeg  -10.9774 -6.28512 -10.1484
LeftLeg  32.0447 -69.1414 -31.3587
LeftFoot  8.40778 0.573729 -3.59039
LeftToes  5.09284e-011 3.02203e-011 3.83118e-011
657
root  -7.39881 39.7076 10.5782 -10.6248 -67.2911 12.7139
RightUpLeg  9.87097 4.62265 -3.01568
RightLeg  32.2586 8.60257 5.57651
RightFoot  43.8642 -9.68306 19.0333
RightToes  -1.33073e-015 0 -3.6325e-017
Spine  -13.0083 21.2708 31.7578
Spine1  1.34507 21.8589 -25.9411
HEad  19.91 -49.1641 -9.04165
LeftShoulder1  3.1344 -9.67208 -17.1302
LeftArm  -53.7752 -30.8126 -16.438
LeftForeArm  97.5979 -80.6146 -71.6377
LeftHand  -0.246645 0.021 5.37786
RightShoulder  2.47896 9.97643 11.2299
RightArm  103.035 53.9284 152.048
RightForeArm  58.3206 53.7238 10.6376
RightHand  -0.24729 -0.0210522 -5.37781
LeftUpLeg  -10.8429 -6.1634 -9.87031
LeftLeg  30.4979 -68.0822 -29.6415
LeftFoot  8.12389 0.470093 -3.02954
LeftToes  5.09284e-011 3.02203e-011 3.83118e-011
658
root  -7.40951 39.7295 10.5056 -11.5553 -68.8232 13.4703
RightUpLeg  9.74205 5.04721 -3.26793
RightLeg  32.5413 8.36491 5.47665
RightFoot  43.8598 -9.43751 18.5737
RightToes  -1.33073e-015 0 -3.6325e-017
Spine  -13.4465 20.5425 31.5455
Spine1  2.26064 21.1179 -25.1229
HEad  19.0508 -48.0879 -8.74492
LeftShoulder1  3.33053 -9.94351 -18.1906
LeftArm  -52.2295 -31.1455 -17.246
LeftForeArm  89.4576 -80.0807 -64.1307
LeftHand  -0.246645 0.021 5.37786
RightShoulder  2.49616 10.0543 11.2533
RightArm  101.8 54.1558 150.548
RightForeArm  57.8321 53.1259 10.4001
RightHand  -0.24729 -0.0210522 -5.37781
LeftUpLeg  -10.6991 -6.09222 -9.62316
LeftLeg  28.8788 -66.913 -27.8226
LeftFoot  7.82562 0.36466 -2.44262
LeftToes  5.09284e-011 3.02203e-011 3.83118e-011
659
root  -7.42109 39.7543 10.4375 -12.5645 -70.4123 14.3593
RightUpLeg  9.53706 5.36932 -3.56382
RightLeg  32.8224 8.05934 5.32679
RightFoot  43.9141 -9.15438 18.0217
RightToes  -1.33073e-015 0 -3.6325e-017
Spine  -13.9198 19.781 31.249
Spine1  3.0933 20.3239 -24.3519
HEad  18.062 -46.996 -8.18366
LeftShoulder1  3.50991 -10.212 -19.0774
LeftArm  -50.5262 -31.3964 -18.4478
LeftForeArm  83.2157 -79.5074 -58.4322
LeftHand  -0.246645 0.021 5.37786
RightShoulder  2.5348 10.1546 11.4164
RightArm  100.339 54.3372 148.803
RightForeArm  57.3224 52.54 10.1761
RightHand  -0.24729 -0.0210522 -5.37781
LeftUpLeg  -10.609 -6.01887 -9.35104
LeftLeg  27.288 -65.6523 -26.0358
LeftFoot  7.54458 0.275257 -1.93179
LeftToes  5.09284e-011 3.02203e-011 3.83118e-011
